<svg width="18" height="18" viewBox="0 0 18 18" fill="none" xmlns="http://www.w3.org/2000/svg">
<path d="M10.8782 13.0809C11.8347 12.8619 12.7476 12.4837 13.5787 11.9621C13.8718 11.7644 14.0763 11.4604 14.1492 11.1145C14.2221 10.7685 14.1576 10.4078 13.9692 10.1087C13.7809 9.80949 13.4836 9.59531 13.1402 9.51144C12.7968 9.42756 12.4342 9.48057 12.1292 9.65925C11.1907 10.2451 10.1066 10.5557 9.00027 10.5557C7.89394 10.5557 6.80984 10.2451 5.87137 9.65925C5.5667 9.46717 5.19833 9.40366 4.84693 9.48263C4.49553 9.56159 4.18975 9.7766 3.99656 10.0806V10.0834C3.90111 10.2343 3.83638 10.4026 3.8061 10.5786C3.77581 10.7546 3.78056 10.9349 3.82006 11.109C3.85957 11.2832 3.93305 11.4479 4.03631 11.5936C4.13957 11.7393 4.27057 11.8632 4.42181 11.9582L4.42406 11.961C5.25307 12.4827 6.16446 12.8602 7.11956 13.0776L4.52081 15.6757C4.26635 15.9255 4.12133 16.266 4.11753 16.6225C4.11374 16.979 4.25148 17.3225 4.50056 17.5776L4.52362 17.6006C4.78181 17.8667 5.13056 17.9989 5.47931 17.9989C5.82806 17.9989 6.17624 17.8667 6.43387 17.6006L9.00056 15.0486L11.5521 17.604C12.0943 18.1221 12.9555 18.1103 13.4775 17.5686C13.7225 17.315 13.8594 16.9762 13.8594 16.6236C13.8594 16.271 13.7225 15.9322 13.4775 15.6786L10.8782 13.0809ZM8.99999 9.29025C10.2316 9.28951 11.4127 8.80006 12.2838 7.92937C13.1549 7.05867 13.6449 5.87789 13.6462 4.64625C13.6462 2.08575 11.5605 0 8.99999 0C6.43949 0 4.35374 2.08575 4.35374 4.64625C4.35508 5.87815 4.84501 7.05922 5.71604 7.93036C6.58708 8.8015 7.76809 9.29157 8.99999 9.29306V9.29025ZM8.99999 2.72475C9.50952 2.72505 9.99808 2.92759 10.3584 3.28787C10.7187 3.64816 10.9212 4.13673 10.9215 4.64625C10.9213 5.15618 10.719 5.64524 10.3588 6.00619C9.99857 6.36713 9.50992 6.5705 8.99999 6.57169C8.48985 6.57035 8.001 6.36703 7.64038 6.00619C7.27976 5.64536 7.07672 5.15639 7.07568 4.64625C7.07746 4.13644 7.28077 3.64801 7.64126 3.28752C8.00176 2.92703 8.49018 2.72372 8.99999 2.72194V2.72475Z" fill="black"/>
</svg>
